<?xml version="1.0" encoding="utf-8" standalone="no"?>
<!DOCTYPE svg PUBLIC "-//W3C//DTD SVG 1.1//EN"
  "http://www.w3.org/Graphics/SVG/1.1/DTD/svg11.dtd">
<svg xmlns:xlink="http://www.w3.org/1999/xlink" width="720pt" height="720pt" viewBox="0 0 720 720" xmlns="http://www.w3.org/2000/svg" version="1.1">
 <metadata>
  <rdf:RDF xmlns:dc="http://purl.org/dc/elements/1.1/" xmlns:cc="http://creativecommons.org/ns#" xmlns:rdf="http://www.w3.org/1999/02/22-rdf-syntax-ns#">
   <cc:Work>
    <dc:type rdf:resource="http://purl.org/dc/dcmitype/StillImage"/>
    <dc:date>2023-06-06T17:33:38.542218</dc:date>
    <dc:format>image/svg+xml</dc:format>
    <dc:creator>
     <cc:Agent>
      <dc:title>Matplotlib v3.7.1, https://matplotlib.org/</dc:title>
     </cc:Agent>
    </dc:creator>
   </cc:Work>
  </rdf:RDF>
 </metadata>
 <defs>
  <style type="text/css">*{stroke-linejoin: round; stroke-linecap: butt}</style>
 </defs>
 <g id="figure_1">
  <g id="patch_1">
   <path d="M 0 720 
L 720 720 
L 720 0 
L 0 0 
z
" style="fill: #ffffff"/>
  </g>
  <g id="axes_1">
   <g id="patch_2">
    <path d="M 90 640.8 
L 648 640.8 
L 648 86.4 
L 90 86.4 
z
" style="fill: #ffffff"/>
   </g>
   <g id="patch_3">
    <path d="M 115.363636 640.8 
L 161.479339 640.8 
L 161.479339 195.570389 
L 115.363636 195.570389 
z
" clip-path="url(#p2ee5b5135d)" style="fill: url(#ha408583280); stroke: #0000ff; stroke-width: 2; stroke-linejoin: miter"/>
   </g>
   <g id="patch_4">
    <path d="M 230.652893 640.8 
L 276.768595 640.8 
L 276.768595 332.652916 
L 230.652893 332.652916 
z
" clip-path="url(#p2ee5b5135d)" style="fill: url(#ha408583280); stroke: #0000ff; stroke-width: 2; stroke-linejoin: miter"/>
   </g>
   <g id="patch_5">
    <path d="M 345.942149 640.8 
L 392.057851 640.8 
L 392.057851 170.965079 
L 345.942149 170.965079 
z
" clip-path="url(#p2ee5b5135d)" style="fill: url(#ha408583280); stroke: #0000ff; stroke-width: 2; stroke-linejoin: miter"/>
   </g>
   <g id="patch_6">
    <path d="M 461.231405 640.8 
L 507.347107 640.8 
L 507.347107 321.090901 
L 461.231405 321.090901 
z
" clip-path="url(#p2ee5b5135d)" style="fill: url(#ha408583280); stroke: #0000ff; stroke-width: 2; stroke-linejoin: miter"/>
   </g>
   <g id="patch_7">
    <path d="M 576.520661 640.8 
L 622.636364 640.8 
L 622.636364 322.761528 
L 576.520661 322.761528 
z
" clip-path="url(#p2ee5b5135d)" style="fill: url(#ha408583280); stroke: #0000ff; stroke-width: 2; stroke-linejoin: miter"/>
   </g>
   <g id="patch_8">
    <path d="M 115.363636 195.570389 
L 161.479339 195.570389 
L 161.479339 131.369073 
L 115.363636 131.369073 
z
" clip-path="url(#p2ee5b5135d)" style="fill: url(#h50763bada2); stroke: #008000; stroke-width: 2; stroke-linejoin: miter"/>
   </g>
   <g id="patch_9">
    <path d="M 230.652893 332.652916 
L 276.768595 332.652916 
L 276.768595 163.944849 
L 230.652893 163.944849 
z
" clip-path="url(#p2ee5b5135d)" style="fill: url(#h50763bada2); stroke: #008000; stroke-width: 2; stroke-linejoin: miter"/>
   </g>
   <g id="patch_10">
    <path d="M 345.942149 170.965079 
L 392.057851 170.965079 
L 392.057851 126.074938 
L 345.942149 126.074938 
z
" clip-path="url(#p2ee5b5135d)" style="fill: url(#h50763bada2); stroke: #008000; stroke-width: 2; stroke-linejoin: miter"/>
   </g>
   <g id="patch_11">
    <path d="M 461.231405 321.090901 
L 507.347107 321.090901 
L 507.347107 156.542022 
L 461.231405 156.542022 
z
" clip-path="url(#p2ee5b5135d)" style="fill: url(#h50763bada2); stroke: #008000; stroke-width: 2; stroke-linejoin: miter"/>
   </g>
   <g id="patch_12">
    <path d="M 576.520661 322.761528 
L 622.636364 322.761528 
L 622.636364 159.183542 
L 576.520661 159.183542 
z
" clip-path="url(#p2ee5b5135d)" style="fill: url(#h50763bada2); stroke: #008000; stroke-width: 2; stroke-linejoin: miter"/>
   </g>
   <g id="patch_13">
    <path d="M 115.363636 131.369073 
L 161.479339 131.369073 
L 161.479339 112.8 
L 115.363636 112.8 
z
" clip-path="url(#p2ee5b5135d)" style="fill: url(#ha549f7c59e); stroke: #ff0000; stroke-width: 2; stroke-linejoin: miter"/>
   </g>
   <g id="patch_14">
    <path d="M 230.652893 163.944849 
L 276.768595 163.944849 
L 276.768595 112.8 
L 230.652893 112.8 
z
" clip-path="url(#p2ee5b5135d)" style="fill: url(#ha549f7c59e); stroke: #ff0000; stroke-width: 2; stroke-linejoin: miter"/>
   </g>
   <g id="patch_15">
    <path d="M 345.942149 126.074938 
L 392.057851 126.074938 
L 392.057851 112.8 
L 345.942149 112.8 
z
" clip-path="url(#p2ee5b5135d)" style="fill: url(#ha549f7c59e); stroke: #ff0000; stroke-width: 2; stroke-linejoin: miter"/>
   </g>
   <g id="patch_16">
    <path d="M 461.231405 156.542022 
L 507.347107 156.542022 
L 507.347107 112.8 
L 461.231405 112.8 
z
" clip-path="url(#p2ee5b5135d)" style="fill: url(#ha549f7c59e); stroke: #ff0000; stroke-width: 2; stroke-linejoin: miter"/>
   </g>
   <g id="patch_17">
    <path d="M 576.520661 159.183542 
L 622.636364 159.183542 
L 622.636364 112.8 
L 576.520661 112.8 
z
" clip-path="url(#p2ee5b5135d)" style="fill: url(#ha549f7c59e); stroke: #ff0000; stroke-width: 2; stroke-linejoin: miter"/>
   </g>
   <g id="matplotlib.axis_1">
    <g id="xtick_1">
     <g id="line2d_1">
      <path d="M 138.421488 640.8 
L 138.421488 86.4 
" clip-path="url(#p2ee5b5135d)" style="fill: none; stroke: #b0b0b0; stroke-width: 0.8; stroke-linecap: square"/>
     </g>
     <g id="line2d_2">
      <defs>
       <path id="m05838f55a6" d="M 0 0 
L 0 3.5 
" style="stroke: #000000; stroke-width: 0.8"/>
      </defs>
      <g>
       <use xlink:href="#m05838f55a6" x="138.421488" y="640.8" style="stroke: #000000; stroke-width: 0.8"/>
      </g>
     </g>
     <g id="text_1">
      <!-- zstd -->
      <g transform="translate(117.4793 665.841563) scale(0.26 -0.26)">
       <defs>
        <path id="LiberationSerif-7a" d="M 172 0 
L 172 141 
L 1784 2688 
L 1094 2688 
Q 1006 2688 920 2680 
Q 834 2672 757 2658 
Q 681 2644 622 2623 
Q 563 2603 531 2578 
L 434 2156 
L 288 2156 
L 288 2938 
L 2456 2938 
L 2456 2784 
L 844 250 
L 1703 250 
Q 1788 250 1883 261 
Q 1978 272 2067 290 
Q 2156 309 2232 336 
Q 2309 363 2356 397 
L 2516 1013 
L 2663 1013 
L 2584 0 
L 172 0 
z
" transform="scale(0.015625)"/>
        <path id="LiberationSerif-73" d="M 2259 825 
Q 2259 628 2198 464 
Q 2138 300 2006 183 
Q 1875 66 1667 1 
Q 1459 -63 1166 -63 
Q 1019 -63 876 -45 
Q 734 -28 612 -4 
Q 491 19 400 44 
Q 309 69 269 84 
L 269 806 
L 409 806 
L 563 397 
Q 659 309 812 246 
Q 966 184 1172 184 
Q 1463 184 1620 311 
Q 1778 438 1778 703 
Q 1778 859 1712 961 
Q 1647 1063 1540 1131 
Q 1434 1200 1298 1245 
Q 1163 1291 1020 1337 
Q 878 1384 742 1443 
Q 606 1503 500 1597 
Q 394 1691 328 1831 
Q 263 1972 263 2181 
Q 263 2381 334 2537 
Q 406 2694 536 2800 
Q 666 2906 845 2961 
Q 1025 3016 1241 3016 
Q 1453 3016 1656 2986 
Q 1859 2956 2047 2919 
L 2047 2278 
L 1900 2278 
L 1769 2619 
Q 1688 2691 1547 2728 
Q 1406 2766 1247 2766 
Q 994 2766 861 2641 
Q 728 2516 728 2303 
Q 728 2159 793 2067 
Q 859 1975 967 1911 
Q 1075 1847 1212 1800 
Q 1350 1753 1494 1703 
Q 1638 1653 1775 1589 
Q 1913 1525 2020 1425 
Q 2128 1325 2193 1181 
Q 2259 1038 2259 825 
z
" transform="scale(0.015625)"/>
        <path id="LiberationSerif-74" d="M 1044 -63 
Q 744 -63 595 115 
Q 447 294 447 616 
L 447 2675 
L 63 2675 
L 63 2816 
L 453 2938 
L 769 3603 
L 966 3603 
L 966 2938 
L 1638 2938 
L 1638 2675 
L 966 2675 
L 966 672 
Q 966 469 1058 366 
Q 1150 263 1300 263 
Q 1416 263 1530 278 
Q 1644 294 1741 313 
L 1741 109 
Q 1694 78 1617 47 
Q 1541 16 1448 -7 
Q 1356 -31 1253 -47 
Q 1150 -63 1044 -63 
z
" transform="scale(0.015625)"/>
        <path id="LiberationSerif-64" d="M 2259 219 
Q 2122 109 1917 23 
Q 1713 -63 1434 -63 
Q 231 -63 231 1441 
Q 231 1806 311 2098 
Q 391 2391 556 2595 
Q 722 2800 975 2908 
Q 1228 3016 1575 3016 
Q 1734 3016 1914 2997 
Q 2094 2978 2259 2944 
Q 2253 2978 2250 3045 
Q 2247 3113 2245 3189 
Q 2244 3266 2242 3341 
Q 2241 3416 2241 3463 
L 2241 4225 
L 1747 4300 
L 1747 4441 
L 2759 4441 
L 2759 219 
L 3122 141 
L 3122 0 
L 2297 0 
L 2259 219 
z
M 794 1441 
Q 794 1113 851 888 
Q 909 663 1015 523 
Q 1122 384 1272 323 
Q 1422 263 1606 263 
Q 1794 263 1959 298 
Q 2125 334 2241 384 
L 2241 2706 
Q 2109 2731 1937 2745 
Q 1766 2759 1606 2759 
Q 1191 2759 992 2425 
Q 794 2091 794 1441 
z
" transform="scale(0.015625)"/>
       </defs>
       <use xlink:href="#LiberationSerif-7a"/>
       <use xlink:href="#LiberationSerif-73" x="44.384766"/>
       <use xlink:href="#LiberationSerif-74" x="83.300781"/>
       <use xlink:href="#LiberationSerif-64" x="111.083984"/>
      </g>
     </g>
    </g>
    <g id="xtick_2">
     <g id="line2d_3">
      <path d="M 253.710744 640.8 
L 253.710744 86.4 
" clip-path="url(#p2ee5b5135d)" style="fill: none; stroke: #b0b0b0; stroke-width: 0.8; stroke-linecap: square"/>
     </g>
     <g id="line2d_4">
      <g>
       <use xlink:href="#m05838f55a6" x="253.710744" y="640.8" style="stroke: #000000; stroke-width: 0.8"/>
      </g>
     </g>
     <g id="text_2">
      <!-- lz4 -->
      <g transform="translate(237.8284 665.841563) scale(0.26 -0.26)">
       <defs>
        <path id="LiberationSerif-6c" d="M 1147 219 
L 1650 141 
L 1650 0 
L 128 0 
L 128 141 
L 628 219 
L 628 4225 
L 128 4300 
L 128 4441 
L 1147 4441 
L 1147 219 
z
" transform="scale(0.015625)"/>
        <path id="LiberationSerif-34" d="M 2531 922 
L 2531 0 
L 1994 0 
L 1994 922 
L 125 922 
L 125 1338 
L 2172 4213 
L 2531 4213 
L 2531 1369 
L 3100 1369 
L 3100 922 
L 2531 922 
z
M 1994 3478 
L 1978 3478 
L 478 1369 
L 1994 1369 
L 1994 3478 
z
" transform="scale(0.015625)"/>
       </defs>
       <use xlink:href="#LiberationSerif-6c"/>
       <use xlink:href="#LiberationSerif-7a" x="27.783203"/>
       <use xlink:href="#LiberationSerif-34" x="72.167969"/>
      </g>
     </g>
    </g>
    <g id="xtick_3">
     <g id="line2d_5">
      <path d="M 369 640.8 
L 369 86.4 
" clip-path="url(#p2ee5b5135d)" style="fill: none; stroke: #b0b0b0; stroke-width: 0.8; stroke-linecap: square"/>
     </g>
     <g id="line2d_6">
      <g>
       <use xlink:href="#m05838f55a6" x="369" y="640.8" style="stroke: #000000; stroke-width: 0.8"/>
      </g>
     </g>
     <g id="text_3">
      <!-- lz4hc -->
      <g transform="translate(340.846875 665.841563) scale(0.26 -0.26)">
       <defs>
        <path id="LiberationSerif-68" d="M 1019 3169 
Q 1019 3125 1017 3062 
Q 1016 3000 1014 2933 
Q 1013 2866 1008 2803 
Q 1003 2741 997 2700 
Q 1084 2750 1209 2806 
Q 1334 2863 1470 2909 
Q 1606 2956 1742 2986 
Q 1878 3016 1991 3016 
Q 2159 3016 2300 2969 
Q 2441 2922 2542 2819 
Q 2644 2716 2701 2550 
Q 2759 2384 2759 2150 
L 2759 219 
L 3116 141 
L 3116 0 
L 1850 0 
L 1850 141 
L 2241 219 
L 2241 2113 
Q 2241 2372 2114 2511 
Q 1988 2650 1722 2650 
Q 1634 2650 1536 2640 
Q 1438 2631 1341 2618 
Q 1244 2606 1159 2589 
Q 1075 2572 1019 2559 
L 1019 219 
L 1416 141 
L 1416 0 
L 128 0 
L 128 141 
L 500 219 
L 500 4225 
L 63 4300 
L 63 4441 
L 1019 4441 
L 1019 3169 
z
" transform="scale(0.015625)"/>
        <path id="LiberationSerif-63" d="M 2644 178 
Q 2563 119 2450 73 
Q 2338 28 2209 -1 
Q 2081 -31 1942 -47 
Q 1803 -63 1672 -63 
Q 1291 -63 1020 42 
Q 750 147 578 347 
Q 406 547 325 836 
Q 244 1125 244 1491 
Q 244 1891 348 2180 
Q 453 2469 640 2655 
Q 828 2841 1086 2928 
Q 1344 3016 1650 3016 
Q 1903 3016 2140 2986 
Q 2378 2956 2572 2919 
L 2572 2100 
L 2400 2100 
L 2266 2619 
Q 2150 2684 1986 2725 
Q 1822 2766 1644 2766 
Q 1441 2766 1286 2692 
Q 1131 2619 1023 2462 
Q 916 2306 861 2065 
Q 806 1825 806 1491 
Q 806 1209 853 982 
Q 900 756 1019 597 
Q 1138 438 1339 350 
Q 1541 263 1850 263 
Q 1956 263 2067 270 
Q 2178 278 2283 292 
Q 2388 306 2480 325 
Q 2572 344 2644 366 
L 2644 178 
z
" transform="scale(0.015625)"/>
       </defs>
       <use xlink:href="#LiberationSerif-6c"/>
       <use xlink:href="#LiberationSerif-7a" x="27.783203"/>
       <use xlink:href="#LiberationSerif-34" x="72.167969"/>
       <use xlink:href="#LiberationSerif-68" x="122.167969"/>
       <use xlink:href="#LiberationSerif-63" x="172.167969"/>
      </g>
     </g>
    </g>
    <g id="xtick_4">
     <g id="line2d_7">
      <path d="M 484.289256 640.8 
L 484.289256 86.4 
" clip-path="url(#p2ee5b5135d)" style="fill: none; stroke: #b0b0b0; stroke-width: 0.8; stroke-linecap: square"/>
     </g>
     <g id="line2d_8">
      <g>
       <use xlink:href="#m05838f55a6" x="484.289256" y="640.8" style="stroke: #000000; stroke-width: 0.8"/>
      </g>
     </g>
     <g id="text_4">
      <!-- lzo -->
      <g transform="translate(468.406912 665.841563) scale(0.26 -0.26)">
       <defs>
        <path id="LiberationSerif-6f" d="M 2956 1484 
Q 2956 738 2622 337 
Q 2288 -63 1581 -63 
Q 919 -63 581 334 
Q 244 731 244 1484 
Q 244 2228 581 2622 
Q 919 3016 1606 3016 
Q 2275 3016 2615 2630 
Q 2956 2244 2956 1484 
z
M 2394 1484 
Q 2394 1788 2353 2027 
Q 2313 2266 2217 2430 
Q 2122 2594 1965 2680 
Q 1809 2766 1581 2766 
Q 1350 2766 1200 2680 
Q 1050 2594 962 2430 
Q 875 2266 840 2027 
Q 806 1788 806 1484 
Q 806 1178 840 937 
Q 875 697 962 530 
Q 1050 363 1200 273 
Q 1350 184 1581 184 
Q 1809 184 1965 273 
Q 2122 363 2217 530 
Q 2313 697 2353 937 
Q 2394 1178 2394 1484 
z
" transform="scale(0.015625)"/>
       </defs>
       <use xlink:href="#LiberationSerif-6c"/>
       <use xlink:href="#LiberationSerif-7a" x="27.783203"/>
       <use xlink:href="#LiberationSerif-6f" x="72.167969"/>
      </g>
     </g>
    </g>
    <g id="xtick_5">
     <g id="line2d_9">
      <path d="M 599.578512 640.8 
L 599.578512 86.4 
" clip-path="url(#p2ee5b5135d)" style="fill: none; stroke: #b0b0b0; stroke-width: 0.8; stroke-linecap: square"/>
     </g>
     <g id="line2d_10">
      <g>
       <use xlink:href="#m05838f55a6" x="599.578512" y="640.8" style="stroke: #000000; stroke-width: 0.8"/>
      </g>
     </g>
     <g id="text_5">
      <!-- lzo-rle -->
      <g transform="translate(565.656637 665.841563) scale(0.26 -0.26)">
       <defs>
        <path id="LiberationSerif-2d" d="M 238 1269 
L 238 1747 
L 1900 1747 
L 1900 1269 
L 238 1269 
z
" transform="scale(0.015625)"/>
        <path id="LiberationSerif-72" d="M 2075 3016 
L 2075 2222 
L 1941 2222 
L 1759 2566 
Q 1672 2566 1572 2553 
Q 1472 2541 1372 2520 
Q 1272 2500 1180 2472 
Q 1088 2444 1019 2413 
L 1019 219 
L 1522 141 
L 1522 0 
L 128 0 
L 128 141 
L 500 219 
L 500 2719 
L 128 2797 
L 128 2938 
L 984 2938 
L 1013 2572 
Q 1084 2631 1209 2707 
Q 1334 2784 1479 2853 
Q 1625 2922 1770 2969 
Q 1916 3016 2028 3016 
L 2075 3016 
z
" transform="scale(0.015625)"/>
        <path id="LiberationSerif-65" d="M 813 1478 
L 813 1422 
Q 813 1194 845 984 
Q 878 775 976 614 
Q 1075 453 1253 358 
Q 1431 263 1722 263 
Q 1816 263 1919 270 
Q 2022 278 2125 290 
Q 2228 303 2325 318 
Q 2422 334 2503 353 
L 2503 178 
Q 2431 131 2329 89 
Q 2228 47 2106 12 
Q 1984 -22 1846 -42 
Q 1709 -63 1569 -63 
Q 1203 -63 951 37 
Q 700 138 544 334 
Q 388 531 319 822 
Q 250 1113 250 1491 
Q 250 2259 572 2637 
Q 894 3016 1491 3016 
Q 1725 3016 1929 2953 
Q 2134 2891 2287 2744 
Q 2441 2597 2530 2350 
Q 2619 2103 2619 1734 
L 2619 1478 
L 813 1478 
z
M 1491 2766 
Q 1316 2766 1189 2692 
Q 1063 2619 980 2484 
Q 897 2350 858 2158 
Q 819 1966 819 1728 
L 2075 1728 
Q 2075 1966 2048 2158 
Q 2022 2350 1955 2484 
Q 1888 2619 1775 2692 
Q 1663 2766 1491 2766 
z
" transform="scale(0.015625)"/>
       </defs>
       <use xlink:href="#LiberationSerif-6c"/>
       <use xlink:href="#LiberationSerif-7a" x="27.783203"/>
       <use xlink:href="#LiberationSerif-6f" x="72.167969"/>
       <use xlink:href="#LiberationSerif-2d" x="122.167969"/>
       <use xlink:href="#LiberationSerif-72" x="155.46875"/>
       <use xlink:href="#LiberationSerif-6c" x="188.769531"/>
       <use xlink:href="#LiberationSerif-65" x="216.552734"/>
      </g>
     </g>
    </g>
    <g id="text_6">
     <!-- Алгоритмы сжатия -->
     <g transform="translate(263.466406 693.420313) scale(0.26 -0.26)">
      <defs>
       <path id="LiberationSerif-410" d="M 1441 166 
L 1441 0 
L 63 0 
L 63 166 
L 538 250 
L 1966 4225 
L 2559 4225 
L 4044 250 
L 4575 166 
L 4575 0 
L 2803 0 
L 2803 166 
L 3366 250 
L 2950 1459 
L 1300 1459 
L 878 250 
L 1441 166 
z
M 2113 3775 
L 1394 1741 
L 2853 1741 
L 2113 3775 
z
" transform="scale(0.015625)"/>
       <path id="LiberationSerif-43b" d="M 453 269 
Q 519 269 578 350 
Q 638 431 698 622 
Q 759 813 823 1123 
Q 888 1434 959 1891 
L 1091 2719 
L 681 2797 
L 681 2938 
L 3044 2938 
L 3044 2797 
L 2688 2719 
L 2688 219 
L 3044 141 
L 3044 0 
L 1778 0 
L 1778 141 
L 2169 219 
L 2169 2678 
L 1372 2678 
L 1238 1806 
Q 1172 1381 1108 1036 
Q 1044 691 955 447 
Q 866 203 733 70 
Q 600 -63 400 -63 
Q 297 -63 211 -30 
Q 125 3 81 41 
L 63 550 
L 203 550 
L 300 384 
Q 319 350 361 309 
Q 403 269 453 269 
z
" transform="scale(0.015625)"/>
       <path id="LiberationSerif-433" d="M 2459 2100 
L 2288 2100 
L 2153 2619 
Q 2044 2638 1876 2658 
Q 1709 2678 1531 2678 
L 1025 2678 
L 1025 219 
L 1506 141 
L 1506 0 
L 116 0 
L 116 141 
L 506 219 
L 506 2719 
L 116 2797 
L 116 2938 
L 2459 2938 
L 2459 2100 
z
" transform="scale(0.015625)"/>
       <path id="LiberationSerif-43e" d="M 2956 1484 
Q 2956 738 2622 337 
Q 2288 -63 1581 -63 
Q 919 -63 581 334 
Q 244 731 244 1484 
Q 244 2228 581 2622 
Q 919 3016 1606 3016 
Q 2275 3016 2615 2630 
Q 2956 2244 2956 1484 
z
M 2394 1484 
Q 2394 1788 2353 2027 
Q 2313 2266 2217 2430 
Q 2122 2594 1965 2680 
Q 1809 2766 1581 2766 
Q 1350 2766 1200 2680 
Q 1050 2594 962 2430 
Q 875 2266 840 2027 
Q 806 1788 806 1484 
Q 806 1178 840 937 
Q 875 697 962 530 
Q 1050 363 1200 273 
Q 1350 184 1581 184 
Q 1809 184 1965 273 
Q 2122 363 2217 530 
Q 2313 697 2353 937 
Q 2394 1178 2394 1484 
z
" transform="scale(0.015625)"/>
       <path id="LiberationSerif-440" d="M 475 2719 
L 141 2797 
L 141 2938 
L 966 2938 
L 972 2766 
Q 1038 2822 1127 2867 
Q 1216 2913 1319 2945 
Q 1422 2978 1537 2997 
Q 1653 3016 1772 3016 
Q 2047 3016 2265 2919 
Q 2484 2822 2637 2630 
Q 2791 2438 2870 2155 
Q 2950 1872 2950 1503 
Q 2950 1144 2869 855 
Q 2788 566 2625 361 
Q 2463 156 2217 46 
Q 1972 -63 1644 -63 
Q 1484 -63 1307 -45 
Q 1131 -28 972 6 
Q 975 -31 979 -79 
Q 984 -128 986 -179 
Q 988 -231 989 -275 
Q 991 -319 991 -347 
L 991 -1141 
L 1503 -1216 
L 1503 -1363 
L 103 -1363 
L 103 -1216 
L 475 -1141 
L 475 2719 
z
M 2388 1503 
Q 2388 1822 2334 2047 
Q 2281 2272 2179 2414 
Q 2078 2556 1931 2622 
Q 1784 2688 1600 2688 
Q 1450 2688 1279 2661 
Q 1109 2634 991 2584 
L 991 238 
Q 1122 213 1281 198 
Q 1441 184 1600 184 
Q 2013 184 2200 526 
Q 2388 869 2388 1503 
z
" transform="scale(0.015625)"/>
       <path id="LiberationSerif-438" d="M 506 2719 
L 116 2797 
L 116 2938 
L 1381 2938 
L 1381 2797 
L 1025 2719 
L 1025 872 
L 2400 2359 
L 2400 2719 
L 2009 2797 
L 2009 2938 
L 3275 2938 
L 3275 2797 
L 2919 2719 
L 2919 219 
L 3275 141 
L 3275 0 
L 2009 0 
L 2009 141 
L 2400 219 
L 2400 2006 
L 1025 519 
L 1025 219 
L 1381 141 
L 1381 0 
L 116 0 
L 116 141 
L 506 219 
L 506 2719 
z
" transform="scale(0.015625)"/>
       <path id="LiberationSerif-442" d="M 2703 2938 
L 2703 2100 
L 2531 2100 
L 2397 2619 
Q 2288 2638 2120 2658 
Q 1953 2678 1775 2678 
L 1656 2678 
L 1656 219 
L 2075 141 
L 2075 0 
L 684 0 
L 684 141 
L 1138 219 
L 1138 2678 
L 1022 2678 
Q 844 2678 676 2658 
Q 509 2638 400 2619 
L 266 2100 
L 94 2100 
L 94 2938 
L 2703 2938 
z
" transform="scale(0.015625)"/>
       <path id="LiberationSerif-43c" d="M 506 2719 
L 147 2797 
L 147 2938 
L 1188 2938 
L 2031 809 
L 2894 2938 
L 3900 2938 
L 3900 2797 
L 3544 2719 
L 3544 219 
L 3900 141 
L 3900 0 
L 2697 0 
L 2697 141 
L 3025 219 
L 3025 2559 
L 1988 0 
L 1819 0 
L 806 2550 
L 806 219 
L 1100 141 
L 1100 0 
L 147 0 
L 147 141 
L 506 219 
L 506 2719 
z
" transform="scale(0.015625)"/>
       <path id="LiberationSerif-44b" d="M 1341 250 
Q 1534 250 1687 276 
Q 1841 303 1945 370 
Q 2050 438 2106 552 
Q 2163 666 2163 838 
Q 2163 1000 2109 1108 
Q 2056 1216 1953 1277 
Q 1850 1338 1695 1363 
Q 1541 1388 1341 1388 
L 1025 1388 
L 1025 250 
L 1341 250 
z
M 1416 2938 
L 1416 2797 
L 1025 2719 
L 1025 1638 
L 1397 1638 
Q 1747 1638 1997 1591 
Q 2247 1544 2409 1448 
Q 2572 1353 2648 1204 
Q 2725 1056 2725 853 
Q 2725 631 2658 470 
Q 2591 309 2433 204 
Q 2275 100 2019 50 
Q 1763 0 1388 0 
L 116 0 
L 116 141 
L 506 219 
L 506 2719 
L 116 2797 
L 116 2938 
L 1416 2938 
z
M 3275 2719 
L 2884 2797 
L 2884 2938 
L 4150 2938 
L 4150 2797 
L 3794 2719 
L 3794 219 
L 4150 141 
L 4150 0 
L 2884 0 
L 2884 141 
L 3275 219 
L 3275 2719 
z
" transform="scale(0.015625)"/>
       <path id="LiberationSerif-20" transform="scale(0.015625)"/>
       <path id="LiberationSerif-441" d="M 2644 178 
Q 2563 119 2450 73 
Q 2338 28 2209 -1 
Q 2081 -31 1942 -47 
Q 1803 -63 1672 -63 
Q 1291 -63 1020 42 
Q 750 147 578 347 
Q 406 547 325 836 
Q 244 1125 244 1491 
Q 244 1891 348 2180 
Q 453 2469 640 2655 
Q 828 2841 1086 2928 
Q 1344 3016 1650 3016 
Q 1903 3016 2140 2986 
Q 2378 2956 2572 2919 
L 2572 2100 
L 2400 2100 
L 2266 2619 
Q 2150 2684 1986 2725 
Q 1822 2766 1644 2766 
Q 1441 2766 1286 2692 
Q 1131 2619 1023 2462 
Q 916 2306 861 2065 
Q 806 1825 806 1491 
Q 806 1209 853 982 
Q 900 756 1019 597 
Q 1138 438 1339 350 
Q 1541 263 1850 263 
Q 1956 263 2067 270 
Q 2178 278 2283 292 
Q 2388 306 2480 325 
Q 2572 344 2644 366 
L 2644 178 
z
" transform="scale(0.015625)"/>
       <path id="LiberationSerif-436" d="M 1969 1159 
L 1569 1478 
L 669 0 
L -25 0 
L -25 141 
L 213 213 
L 1244 1834 
L 450 2725 
L 134 2797 
L 134 2938 
L 1091 2938 
L 1091 2797 
L 816 2713 
L 1969 1419 
L 1969 2719 
L 1703 2797 
L 1703 2938 
L 2719 2938 
L 2719 2797 
L 2456 2719 
L 2456 1419 
L 3609 2713 
L 3334 2797 
L 3334 2938 
L 4291 2938 
L 4291 2797 
L 3975 2725 
L 3181 1834 
L 4213 213 
L 4450 141 
L 4450 0 
L 3756 0 
L 2856 1478 
L 2456 1159 
L 2456 219 
L 2719 141 
L 2719 0 
L 1703 0 
L 1703 141 
L 1969 219 
L 1969 1159 
z
" transform="scale(0.015625)"/>
       <path id="LiberationSerif-430" d="M 1453 3003 
Q 1653 3003 1825 2965 
Q 1997 2928 2122 2837 
Q 2247 2747 2317 2592 
Q 2388 2438 2388 2203 
L 2388 219 
L 2753 141 
L 2753 0 
L 1947 0 
L 1888 294 
Q 1841 247 1761 184 
Q 1681 122 1568 67 
Q 1456 13 1307 -25 
Q 1159 -63 978 -63 
Q 766 -63 620 3 
Q 475 69 387 186 
Q 300 303 262 464 
Q 225 625 225 813 
Q 225 1006 272 1148 
Q 319 1291 403 1387 
Q 488 1484 602 1545 
Q 716 1606 848 1640 
Q 981 1675 1129 1687 
Q 1278 1700 1428 1703 
L 1869 1716 
L 1869 2175 
Q 1869 2306 1847 2414 
Q 1825 2522 1773 2600 
Q 1722 2678 1634 2722 
Q 1547 2766 1416 2766 
Q 1266 2766 1112 2725 
Q 959 2684 844 2619 
L 738 2253 
L 563 2253 
L 563 2894 
Q 766 2938 983 2970 
Q 1200 3003 1453 3003 
z
M 1869 1497 
L 1459 1484 
Q 1275 1478 1140 1448 
Q 1006 1419 918 1347 
Q 831 1275 787 1150 
Q 744 1025 744 831 
Q 744 281 1191 281 
Q 1403 281 1558 329 
Q 1713 378 1869 453 
L 1869 1497 
z
" transform="scale(0.015625)"/>
       <path id="LiberationSerif-44f" d="M 731 0 
L 19 0 
L 19 141 
L 272 213 
L 969 1356 
Q 656 1428 482 1634 
Q 309 1841 309 2141 
Q 309 2366 400 2517 
Q 491 2669 655 2762 
Q 819 2856 1048 2897 
Q 1278 2938 1553 2938 
L 2828 2938 
L 2828 2797 
L 2438 2719 
L 2438 219 
L 2828 141 
L 2828 0 
L 1534 0 
L 1534 141 
L 1919 222 
L 1919 1263 
L 1463 1263 
L 731 0 
z
M 1919 2688 
L 1600 2688 
Q 1219 2688 1045 2545 
Q 872 2403 872 2125 
Q 872 1997 905 1886 
Q 938 1775 1017 1692 
Q 1097 1609 1226 1561 
Q 1356 1513 1553 1513 
L 1919 1513 
L 1919 2688 
z
" transform="scale(0.015625)"/>
      </defs>
      <use xlink:href="#LiberationSerif-410"/>
      <use xlink:href="#LiberationSerif-43b" x="72.216797"/>
      <use xlink:href="#LiberationSerif-433" x="122.119141"/>
      <use xlink:href="#LiberationSerif-43e" x="160.634766"/>
      <use xlink:href="#LiberationSerif-440" x="210.634766"/>
      <use xlink:href="#LiberationSerif-438" x="260.634766"/>
      <use xlink:href="#LiberationSerif-442" x="314.150391"/>
      <use xlink:href="#LiberationSerif-43c" x="357.851562"/>
      <use xlink:href="#LiberationSerif-44b" x="421.132812"/>
      <use xlink:href="#LiberationSerif-20" x="488.320312"/>
      <use xlink:href="#LiberationSerif-441" x="513.320312"/>
      <use xlink:href="#LiberationSerif-436" x="557.705078"/>
      <use xlink:href="#LiberationSerif-430" x="626.796875"/>
      <use xlink:href="#LiberationSerif-442" x="668.556641"/>
      <use xlink:href="#LiberationSerif-438" x="712.257812"/>
      <use xlink:href="#LiberationSerif-44f" x="765.773438"/>
     </g>
    </g>
   </g>
   <g id="matplotlib.axis_2">
    <g id="ytick_1">
     <g id="line2d_11">
      <path d="M 90 640.8 
L 648 640.8 
" clip-path="url(#p2ee5b5135d)" style="fill: none; stroke: #b0b0b0; stroke-width: 0.8; stroke-linecap: square"/>
     </g>
     <g id="line2d_12">
      <defs>
       <path id="m62cb0e96ac" d="M 0 0 
L -3.5 0 
" style="stroke: #000000; stroke-width: 0.8"/>
      </defs>
      <g>
       <use xlink:href="#m62cb0e96ac" x="90" y="640.8" style="stroke: #000000; stroke-width: 0.8"/>
      </g>
     </g>
     <g id="text_7">
      <!-- 0 -->
      <g transform="translate(70 649.820781) scale(0.26 -0.26)">
       <defs>
        <path id="LiberationSerif-30" d="M 2956 2113 
Q 2956 1588 2873 1181 
Q 2791 775 2622 498 
Q 2453 222 2193 79 
Q 1934 -63 1581 -63 
Q 919 -63 581 493 
Q 244 1050 244 2113 
Q 244 3153 581 3704 
Q 919 4256 1606 4256 
Q 2269 4256 2612 3711 
Q 2956 3166 2956 2113 
z
M 2381 2113 
Q 2381 2563 2342 2916 
Q 2303 3269 2211 3511 
Q 2119 3753 1964 3879 
Q 1809 4006 1581 4006 
Q 1350 4006 1201 3879 
Q 1053 3753 968 3511 
Q 884 3269 851 2916 
Q 819 2563 819 2113 
Q 819 1663 851 1305 
Q 884 947 968 698 
Q 1053 450 1201 317 
Q 1350 184 1581 184 
Q 1809 184 1964 317 
Q 2119 450 2211 698 
Q 2303 947 2342 1305 
Q 2381 1663 2381 2113 
z
" transform="scale(0.015625)"/>
       </defs>
       <use xlink:href="#LiberationSerif-30"/>
      </g>
     </g>
    </g>
    <g id="ytick_2">
     <g id="line2d_13">
      <path d="M 90 535.2 
L 648 535.2 
" clip-path="url(#p2ee5b5135d)" style="fill: none; stroke: #b0b0b0; stroke-width: 0.8; stroke-linecap: square"/>
     </g>
     <g id="line2d_14">
      <g>
       <use xlink:href="#m62cb0e96ac" x="90" y="535.2" style="stroke: #000000; stroke-width: 0.8"/>
      </g>
     </g>
     <g id="text_8">
      <!-- 20 -->
      <g transform="translate(57 544.220781) scale(0.26 -0.26)">
       <defs>
        <path id="LiberationSerif-32" d="M 2847 0 
L 281 0 
L 281 459 
Q 597 753 861 986 
Q 1125 1219 1336 1420 
Q 1547 1622 1705 1806 
Q 1863 1991 1967 2191 
Q 2072 2391 2123 2622 
Q 2175 2853 2175 3144 
Q 2175 3550 1990 3762 
Q 1806 3975 1388 3975 
Q 1294 3975 1201 3961 
Q 1109 3947 1025 3923 
Q 941 3900 867 3870 
Q 794 3841 738 3809 
L 628 3297 
L 422 3297 
L 422 4103 
Q 659 4159 889 4198 
Q 1119 4238 1388 4238 
Q 2075 4238 2420 3952 
Q 2766 3666 2766 3144 
Q 2766 2888 2698 2669 
Q 2631 2450 2506 2248 
Q 2381 2047 2200 1851 
Q 2019 1656 1787 1447 
Q 1556 1238 1279 1002 
Q 1003 766 691 481 
L 2847 481 
L 2847 0 
z
" transform="scale(0.015625)"/>
       </defs>
       <use xlink:href="#LiberationSerif-32"/>
       <use xlink:href="#LiberationSerif-30" x="50"/>
      </g>
     </g>
    </g>
    <g id="ytick_3">
     <g id="line2d_15">
      <path d="M 90 429.6 
L 648 429.6 
" clip-path="url(#p2ee5b5135d)" style="fill: none; stroke: #b0b0b0; stroke-width: 0.8; stroke-linecap: square"/>
     </g>
     <g id="line2d_16">
      <g>
       <use xlink:href="#m62cb0e96ac" x="90" y="429.6" style="stroke: #000000; stroke-width: 0.8"/>
      </g>
     </g>
     <g id="text_9">
      <!-- 40 -->
      <g transform="translate(57 438.620781) scale(0.26 -0.26)">
       <use xlink:href="#LiberationSerif-34"/>
       <use xlink:href="#LiberationSerif-30" x="50"/>
      </g>
     </g>
    </g>
    <g id="ytick_4">
     <g id="line2d_17">
      <path d="M 90 324 
L 648 324 
" clip-path="url(#p2ee5b5135d)" style="fill: none; stroke: #b0b0b0; stroke-width: 0.8; stroke-linecap: square"/>
     </g>
     <g id="line2d_18">
      <g>
       <use xlink:href="#m62cb0e96ac" x="90" y="324" style="stroke: #000000; stroke-width: 0.8"/>
      </g>
     </g>
     <g id="text_10">
      <!-- 60 -->
      <g transform="translate(57 333.020781) scale(0.26 -0.26)">
       <defs>
        <path id="LiberationSerif-36" d="M 3009 1300 
Q 3009 975 2926 722 
Q 2844 469 2681 294 
Q 2519 119 2280 28 
Q 2041 -63 1728 -63 
Q 1384 -63 1114 71 
Q 844 206 658 473 
Q 472 741 373 1139 
Q 275 1538 275 2069 
Q 275 2638 404 3047 
Q 534 3456 751 3722 
Q 969 3988 1253 4113 
Q 1538 4238 1844 4238 
Q 2078 4238 2318 4206 
Q 2559 4175 2753 4128 
L 2753 3406 
L 2547 3406 
L 2438 3834 
Q 2381 3866 2307 3891 
Q 2234 3916 2154 3934 
Q 2075 3953 1995 3964 
Q 1916 3975 1844 3975 
Q 1622 3975 1445 3869 
Q 1269 3763 1141 3547 
Q 1013 3331 939 3006 
Q 866 2681 853 2241 
Q 1078 2359 1345 2434 
Q 1613 2509 1875 2509 
Q 2138 2509 2348 2436 
Q 2559 2363 2706 2213 
Q 2853 2063 2931 1834 
Q 3009 1606 3009 1300 
z
M 1716 184 
Q 1916 184 2053 250 
Q 2191 316 2275 448 
Q 2359 581 2395 779 
Q 2431 978 2431 1241 
Q 2431 1753 2270 1981 
Q 2109 2209 1759 2209 
Q 1547 2209 1314 2168 
Q 1081 2128 850 2053 
Q 850 1603 898 1256 
Q 947 909 1053 670 
Q 1159 431 1321 307 
Q 1484 184 1716 184 
z
" transform="scale(0.015625)"/>
       </defs>
       <use xlink:href="#LiberationSerif-36"/>
       <use xlink:href="#LiberationSerif-30" x="50"/>
      </g>
     </g>
    </g>
    <g id="ytick_5">
     <g id="line2d_19">
      <path d="M 90 218.4 
L 648 218.4 
" clip-path="url(#p2ee5b5135d)" style="fill: none; stroke: #b0b0b0; stroke-width: 0.8; stroke-linecap: square"/>
     </g>
     <g id="line2d_20">
      <g>
       <use xlink:href="#m62cb0e96ac" x="90" y="218.4" style="stroke: #000000; stroke-width: 0.8"/>
      </g>
     </g>
     <g id="text_11">
      <!-- 80 -->
      <g transform="translate(57 227.420781) scale(0.26 -0.26)">
       <defs>
        <path id="LiberationSerif-38" d="M 2828 3169 
Q 2828 2825 2661 2586 
Q 2494 2347 2209 2222 
Q 2378 2159 2515 2059 
Q 2653 1959 2751 1823 
Q 2850 1688 2903 1514 
Q 2956 1341 2956 1131 
Q 2956 538 2622 237 
Q 2288 -63 1581 -63 
Q 913 -63 578 232 
Q 244 528 244 1131 
Q 244 1547 444 1820 
Q 644 2094 984 2222 
Q 713 2347 542 2584 
Q 372 2822 372 3169 
Q 372 3416 448 3617 
Q 525 3819 678 3961 
Q 831 4103 1062 4179 
Q 1294 4256 1606 4256 
Q 1906 4256 2134 4181 
Q 2363 4106 2517 3965 
Q 2672 3825 2750 3623 
Q 2828 3422 2828 3169 
z
M 2394 1131 
Q 2394 1359 2353 1536 
Q 2313 1713 2217 1834 
Q 2122 1956 1965 2018 
Q 1809 2081 1581 2081 
Q 1350 2081 1200 2018 
Q 1050 1956 962 1834 
Q 875 1713 840 1536 
Q 806 1359 806 1131 
Q 806 900 840 723 
Q 875 547 962 428 
Q 1050 309 1200 246 
Q 1350 184 1581 184 
Q 1809 184 1965 246 
Q 2122 309 2217 428 
Q 2313 547 2353 723 
Q 2394 900 2394 1131 
z
M 2266 3169 
Q 2266 3353 2233 3506 
Q 2200 3659 2122 3770 
Q 2044 3881 1912 3943 
Q 1781 4006 1588 4006 
Q 1394 4006 1267 3943 
Q 1141 3881 1067 3770 
Q 994 3659 964 3506 
Q 934 3353 934 3169 
Q 934 2981 964 2831 
Q 994 2681 1067 2575 
Q 1141 2469 1267 2412 
Q 1394 2356 1588 2356 
Q 1781 2356 1912 2412 
Q 2044 2469 2122 2575 
Q 2200 2681 2233 2831 
Q 2266 2981 2266 3169 
z
" transform="scale(0.015625)"/>
       </defs>
       <use xlink:href="#LiberationSerif-38"/>
       <use xlink:href="#LiberationSerif-30" x="50"/>
      </g>
     </g>
    </g>
    <g id="ytick_6">
     <g id="line2d_21">
      <path d="M 90 112.8 
L 648 112.8 
" clip-path="url(#p2ee5b5135d)" style="fill: none; stroke: #b0b0b0; stroke-width: 0.8; stroke-linecap: square"/>
     </g>
     <g id="line2d_22">
      <g>
       <use xlink:href="#m62cb0e96ac" x="90" y="112.8" style="stroke: #000000; stroke-width: 0.8"/>
      </g>
     </g>
     <g id="text_12">
      <!-- 100 -->
      <g transform="translate(44 121.820781) scale(0.26 -0.26)">
       <defs>
        <path id="LiberationSerif-31" d="M 1959 250 
L 2816 166 
L 2816 0 
L 563 0 
L 563 166 
L 1422 250 
L 1422 3669 
L 575 3366 
L 575 3531 
L 1797 4225 
L 1959 4225 
L 1959 250 
z
" transform="scale(0.015625)"/>
       </defs>
       <use xlink:href="#LiberationSerif-31"/>
       <use xlink:href="#LiberationSerif-30" x="50"/>
       <use xlink:href="#LiberationSerif-30" x="100"/>
      </g>
     </g>
    </g>
    <g id="text_13">
     <!-- Время, % -->
     <g transform="translate(34.462812 416.077344) rotate(-90) scale(0.26 -0.26)">
      <defs>
       <path id="LiberationSerif-412" d="M 2994 3175 
Q 2994 3359 2939 3496 
Q 2884 3634 2762 3726 
Q 2641 3819 2447 3864 
Q 2253 3909 1972 3909 
L 1325 3909 
L 1325 2325 
L 2009 2325 
Q 2300 2325 2490 2386 
Q 2681 2447 2792 2558 
Q 2903 2669 2948 2825 
Q 2994 2981 2994 3175 
z
M 3309 1194 
Q 3309 1413 3239 1572 
Q 3169 1731 3020 1836 
Q 2872 1941 2637 1992 
Q 2403 2044 2075 2044 
L 1325 2044 
L 1325 281 
Q 1469 275 1625 272 
Q 1759 266 1921 264 
Q 2084 263 2244 263 
Q 2538 263 2741 328 
Q 2944 394 3070 514 
Q 3197 634 3253 806 
Q 3309 978 3309 1194 
z
M 184 0 
L 184 166 
L 722 250 
L 722 3944 
L 184 4025 
L 184 4191 
L 2100 4191 
Q 2541 4191 2834 4123 
Q 3128 4056 3306 3928 
Q 3484 3800 3559 3617 
Q 3634 3434 3634 3206 
Q 3634 3009 3570 2846 
Q 3506 2684 3392 2561 
Q 3278 2438 3118 2355 
Q 2959 2272 2772 2231 
Q 3044 2203 3264 2122 
Q 3484 2041 3637 1911 
Q 3791 1781 3873 1603 
Q 3956 1425 3956 1206 
Q 3956 934 3864 707 
Q 3772 481 3575 320 
Q 3378 159 3068 70 
Q 2759 -19 2322 -19 
Q 1972 -19 1625 -9 
Q 1278 0 984 0 
L 184 0 
z
" transform="scale(0.015625)"/>
       <path id="LiberationSerif-435" d="M 813 1478 
L 813 1422 
Q 813 1194 845 984 
Q 878 775 976 614 
Q 1075 453 1253 358 
Q 1431 263 1722 263 
Q 1816 263 1919 270 
Q 2022 278 2125 290 
Q 2228 303 2325 318 
Q 2422 334 2503 353 
L 2503 178 
Q 2431 131 2329 89 
Q 2228 47 2106 12 
Q 1984 -22 1846 -42 
Q 1709 -63 1569 -63 
Q 1203 -63 951 37 
Q 700 138 544 334 
Q 388 531 319 822 
Q 250 1113 250 1491 
Q 250 2259 572 2637 
Q 894 3016 1491 3016 
Q 1725 3016 1929 2953 
Q 2134 2891 2287 2744 
Q 2441 2597 2530 2350 
Q 2619 2103 2619 1734 
L 2619 1478 
L 813 1478 
z
M 1491 2766 
Q 1316 2766 1189 2692 
Q 1063 2619 980 2484 
Q 897 2350 858 2158 
Q 819 1966 819 1728 
L 2075 1728 
Q 2075 1966 2048 2158 
Q 2022 2350 1955 2484 
Q 1888 2619 1775 2692 
Q 1663 2766 1491 2766 
z
" transform="scale(0.015625)"/>
       <path id="LiberationSerif-2c" d="M 1197 153 
Q 1197 -31 1145 -204 
Q 1094 -378 980 -525 
Q 866 -672 684 -790 
Q 503 -909 244 -984 
L 244 -744 
Q 528 -653 661 -522 
Q 794 -391 794 -219 
Q 794 -163 762 -123 
Q 731 -84 684 -54 
Q 638 -25 583 3 
Q 528 31 481 70 
Q 434 109 403 167 
Q 372 225 372 313 
Q 372 481 478 570 
Q 584 659 750 659 
Q 838 659 919 626 
Q 1000 594 1061 530 
Q 1122 466 1159 370 
Q 1197 275 1197 153 
z
" transform="scale(0.015625)"/>
       <path id="LiberationSerif-25" d="M 1375 -63 
L 1031 -63 
L 3994 4256 
L 4341 4256 
L 1375 -63 
z
M 2253 3109 
Q 2253 2550 2001 2248 
Q 1750 1947 1222 1947 
Q 719 1947 469 2244 
Q 219 2541 219 3109 
Q 219 3666 470 3961 
Q 722 4256 1241 4256 
Q 1738 4256 1995 3968 
Q 2253 3681 2253 3109 
z
M 1766 3109 
Q 1766 3328 1737 3498 
Q 1709 3669 1646 3786 
Q 1584 3903 1479 3964 
Q 1375 4025 1222 4025 
Q 1069 4025 969 3964 
Q 869 3903 809 3786 
Q 750 3669 726 3498 
Q 703 3328 703 3109 
Q 703 2888 726 2714 
Q 750 2541 809 2422 
Q 869 2303 969 2239 
Q 1069 2175 1222 2175 
Q 1375 2175 1479 2239 
Q 1584 2303 1646 2422 
Q 1709 2541 1737 2714 
Q 1766 2888 1766 3109 
z
M 5113 1081 
Q 5113 519 4863 217 
Q 4613 -84 4084 -84 
Q 3581 -84 3329 212 
Q 3078 509 3078 1081 
Q 3078 1638 3331 1933 
Q 3584 2228 4103 2228 
Q 4600 2228 4856 1940 
Q 5113 1653 5113 1081 
z
M 4628 1081 
Q 4628 1300 4600 1470 
Q 4572 1641 4509 1758 
Q 4447 1875 4342 1936 
Q 4238 1997 4084 1997 
Q 3931 1997 3831 1936 
Q 3731 1875 3672 1758 
Q 3613 1641 3589 1470 
Q 3566 1300 3566 1081 
Q 3566 859 3589 686 
Q 3613 513 3672 394 
Q 3731 275 3831 211 
Q 3931 147 4084 147 
Q 4238 147 4342 211 
Q 4447 275 4509 394 
Q 4572 513 4600 686 
Q 4628 859 4628 1081 
z
" transform="scale(0.015625)"/>
      </defs>
      <use xlink:href="#LiberationSerif-412"/>
      <use xlink:href="#LiberationSerif-440" x="66.699219"/>
      <use xlink:href="#LiberationSerif-435" x="116.699219"/>
      <use xlink:href="#LiberationSerif-43c" x="161.083984"/>
      <use xlink:href="#LiberationSerif-44f" x="224.365234"/>
      <use xlink:href="#LiberationSerif-2c" x="270.361328"/>
      <use xlink:href="#LiberationSerif-20" x="295.361328"/>
      <use xlink:href="#LiberationSerif-25" x="320.361328"/>
     </g>
    </g>
   </g>
   <g id="patch_18">
    <path d="M 90 640.8 
L 90 86.4 
" style="fill: none; stroke: #000000; stroke-width: 0.8; stroke-linejoin: miter; stroke-linecap: square"/>
   </g>
   <g id="patch_19">
    <path d="M 648 640.8 
L 648 86.4 
" style="fill: none; stroke: #000000; stroke-width: 0.8; stroke-linejoin: miter; stroke-linecap: square"/>
   </g>
   <g id="patch_20">
    <path d="M 90 640.8 
L 648 640.8 
" style="fill: none; stroke: #000000; stroke-width: 0.8; stroke-linejoin: miter; stroke-linecap: square"/>
   </g>
   <g id="patch_21">
    <path d="M 90 86.4 
L 648 86.4 
" style="fill: none; stroke: #000000; stroke-width: 0.8; stroke-linejoin: miter; stroke-linecap: square"/>
   </g>
  </g>
 </g>
 <defs>
  <clipPath id="p2ee5b5135d">
   <rect x="90" y="86.4" width="558" height="554.4"/>
  </clipPath>
 </defs>
 <defs>
  <pattern id="ha408583280" patternUnits="userSpaceOnUse" x="0" y="0" width="72" height="72">
   <rect x="0" y="0" width="73" height="73" fill="none"/>
   <path d="M -36 36 
L 36 -36 
M -24 48 
L 48 -24 
M -12 60 
L 60 -12 
M 0 72 
L 72 0 
M 12 84 
L 84 12 
M 24 96 
L 96 24 
M 36 108 
L 108 36 
" style="fill: #0000ff; stroke: #0000ff; stroke-width: 1.0; stroke-linecap: butt; stroke-linejoin: miter"/>
  </pattern>
  <pattern id="h50763bada2" patternUnits="userSpaceOnUse" x="0" y="0" width="72" height="72">
   <rect x="0" y="0" width="73" height="73" fill="none"/>
   <path d="M 0 73.2 
C 0.318244 73.2 0.623496 73.07356 0.848528 72.848528 
C 1.07356 72.623496 1.2 72.318244 1.2 72 
C 1.2 71.681756 1.07356 71.376504 0.848528 71.151472 
C 0.623496 70.92644 0.318244 70.8 0 70.8 
C -0.318244 70.8 -0.623496 70.92644 -0.848528 71.151472 
C -1.07356 71.376504 -1.2 71.681756 -1.2 72 
C -1.2 72.318244 -1.07356 72.623496 -0.848528 72.848528 
C -0.623496 73.07356 -0.318244 73.2 0 73.2 
z
M 12 73.2 
C 12.318244 73.2 12.623496 73.07356 12.848528 72.848528 
C 13.07356 72.623496 13.2 72.318244 13.2 72 
C 13.2 71.681756 13.07356 71.376504 12.848528 71.151472 
C 12.623496 70.92644 12.318244 70.8 12 70.8 
C 11.681756 70.8 11.376504 70.92644 11.151472 71.151472 
C 10.92644 71.376504 10.8 71.681756 10.8 72 
C 10.8 72.318244 10.92644 72.623496 11.151472 72.848528 
C 11.376504 73.07356 11.681756 73.2 12 73.2 
z
M 24 73.2 
C 24.318244 73.2 24.623496 73.07356 24.848528 72.848528 
C 25.07356 72.623496 25.2 72.318244 25.2 72 
C 25.2 71.681756 25.07356 71.376504 24.848528 71.151472 
C 24.623496 70.92644 24.318244 70.8 24 70.8 
C 23.681756 70.8 23.376504 70.92644 23.151472 71.151472 
C 22.92644 71.376504 22.8 71.681756 22.8 72 
C 22.8 72.318244 22.92644 72.623496 23.151472 72.848528 
C 23.376504 73.07356 23.681756 73.2 24 73.2 
z
M 36 73.2 
C 36.318244 73.2 36.623496 73.07356 36.848528 72.848528 
C 37.07356 72.623496 37.2 72.318244 37.2 72 
C 37.2 71.681756 37.07356 71.376504 36.848528 71.151472 
C 36.623496 70.92644 36.318244 70.8 36 70.8 
C 35.681756 70.8 35.376504 70.92644 35.151472 71.151472 
C 34.92644 71.376504 34.8 71.681756 34.8 72 
C 34.8 72.318244 34.92644 72.623496 35.151472 72.848528 
C 35.376504 73.07356 35.681756 73.2 36 73.2 
z
M 48 73.2 
C 48.318244 73.2 48.623496 73.07356 48.848528 72.848528 
C 49.07356 72.623496 49.2 72.318244 49.2 72 
C 49.2 71.681756 49.07356 71.376504 48.848528 71.151472 
C 48.623496 70.92644 48.318244 70.8 48 70.8 
C 47.681756 70.8 47.376504 70.92644 47.151472 71.151472 
C 46.92644 71.376504 46.8 71.681756 46.8 72 
C 46.8 72.318244 46.92644 72.623496 47.151472 72.848528 
C 47.376504 73.07356 47.681756 73.2 48 73.2 
z
M 60 73.2 
C 60.318244 73.2 60.623496 73.07356 60.848528 72.848528 
C 61.07356 72.623496 61.2 72.318244 61.2 72 
C 61.2 71.681756 61.07356 71.376504 60.848528 71.151472 
C 60.623496 70.92644 60.318244 70.8 60 70.8 
C 59.681756 70.8 59.376504 70.92644 59.151472 71.151472 
C 58.92644 71.376504 58.8 71.681756 58.8 72 
C 58.8 72.318244 58.92644 72.623496 59.151472 72.848528 
C 59.376504 73.07356 59.681756 73.2 60 73.2 
z
M 72 73.2 
C 72.318244 73.2 72.623496 73.07356 72.848528 72.848528 
C 73.07356 72.623496 73.2 72.318244 73.2 72 
C 73.2 71.681756 73.07356 71.376504 72.848528 71.151472 
C 72.623496 70.92644 72.318244 70.8 72 70.8 
C 71.681756 70.8 71.376504 70.92644 71.151472 71.151472 
C 70.92644 71.376504 70.8 71.681756 70.8 72 
C 70.8 72.318244 70.92644 72.623496 71.151472 72.848528 
C 71.376504 73.07356 71.681756 73.2 72 73.2 
z
M 6 61.2 
C 6.318244 61.2 6.623496 61.07356 6.848528 60.848528 
C 7.07356 60.623496 7.2 60.318244 7.2 60 
C 7.2 59.681756 7.07356 59.376504 6.848528 59.151472 
C 6.623496 58.92644 6.318244 58.8 6 58.8 
C 5.681756 58.8 5.376504 58.92644 5.151472 59.151472 
C 4.92644 59.376504 4.8 59.681756 4.8 60 
C 4.8 60.318244 4.92644 60.623496 5.151472 60.848528 
C 5.376504 61.07356 5.681756 61.2 6 61.2 
z
M 18 61.2 
C 18.318244 61.2 18.623496 61.07356 18.848528 60.848528 
C 19.07356 60.623496 19.2 60.318244 19.2 60 
C 19.2 59.681756 19.07356 59.376504 18.848528 59.151472 
C 18.623496 58.92644 18.318244 58.8 18 58.8 
C 17.681756 58.8 17.376504 58.92644 17.151472 59.151472 
C 16.92644 59.376504 16.8 59.681756 16.8 60 
C 16.8 60.318244 16.92644 60.623496 17.151472 60.848528 
C 17.376504 61.07356 17.681756 61.2 18 61.2 
z
M 30 61.2 
C 30.318244 61.2 30.623496 61.07356 30.848528 60.848528 
C 31.07356 60.623496 31.2 60.318244 31.2 60 
C 31.2 59.681756 31.07356 59.376504 30.848528 59.151472 
C 30.623496 58.92644 30.318244 58.8 30 58.8 
C 29.681756 58.8 29.376504 58.92644 29.151472 59.151472 
C 28.92644 59.376504 28.8 59.681756 28.8 60 
C 28.8 60.318244 28.92644 60.623496 29.151472 60.848528 
C 29.376504 61.07356 29.681756 61.2 30 61.2 
z
M 42 61.2 
C 42.318244 61.2 42.623496 61.07356 42.848528 60.848528 
C 43.07356 60.623496 43.2 60.318244 43.2 60 
C 43.2 59.681756 43.07356 59.376504 42.848528 59.151472 
C 42.623496 58.92644 42.318244 58.8 42 58.8 
C 41.681756 58.8 41.376504 58.92644 41.151472 59.151472 
C 40.92644 59.376504 40.8 59.681756 40.8 60 
C 40.8 60.318244 40.92644 60.623496 41.151472 60.848528 
C 41.376504 61.07356 41.681756 61.2 42 61.2 
z
M 54 61.2 
C 54.318244 61.2 54.623496 61.07356 54.848528 60.848528 
C 55.07356 60.623496 55.2 60.318244 55.2 60 
C 55.2 59.681756 55.07356 59.376504 54.848528 59.151472 
C 54.623496 58.92644 54.318244 58.8 54 58.8 
C 53.681756 58.8 53.376504 58.92644 53.151472 59.151472 
C 52.92644 59.376504 52.8 59.681756 52.8 60 
C 52.8 60.318244 52.92644 60.623496 53.151472 60.848528 
C 53.376504 61.07356 53.681756 61.2 54 61.2 
z
M 66 61.2 
C 66.318244 61.2 66.623496 61.07356 66.848528 60.848528 
C 67.07356 60.623496 67.2 60.318244 67.2 60 
C 67.2 59.681756 67.07356 59.376504 66.848528 59.151472 
C 66.623496 58.92644 66.318244 58.8 66 58.8 
C 65.681756 58.8 65.376504 58.92644 65.151472 59.151472 
C 64.92644 59.376504 64.8 59.681756 64.8 60 
C 64.8 60.318244 64.92644 60.623496 65.151472 60.848528 
C 65.376504 61.07356 65.681756 61.2 66 61.2 
z
M 0 49.2 
C 0.318244 49.2 0.623496 49.07356 0.848528 48.848528 
C 1.07356 48.623496 1.2 48.318244 1.2 48 
C 1.2 47.681756 1.07356 47.376504 0.848528 47.151472 
C 0.623496 46.92644 0.318244 46.8 0 46.8 
C -0.318244 46.8 -0.623496 46.92644 -0.848528 47.151472 
C -1.07356 47.376504 -1.2 47.681756 -1.2 48 
C -1.2 48.318244 -1.07356 48.623496 -0.848528 48.848528 
C -0.623496 49.07356 -0.318244 49.2 0 49.2 
z
M 12 49.2 
C 12.318244 49.2 12.623496 49.07356 12.848528 48.848528 
C 13.07356 48.623496 13.2 48.318244 13.2 48 
C 13.2 47.681756 13.07356 47.376504 12.848528 47.151472 
C 12.623496 46.92644 12.318244 46.8 12 46.8 
C 11.681756 46.8 11.376504 46.92644 11.151472 47.151472 
C 10.92644 47.376504 10.8 47.681756 10.8 48 
C 10.8 48.318244 10.92644 48.623496 11.151472 48.848528 
C 11.376504 49.07356 11.681756 49.2 12 49.2 
z
M 24 49.2 
C 24.318244 49.2 24.623496 49.07356 24.848528 48.848528 
C 25.07356 48.623496 25.2 48.318244 25.2 48 
C 25.2 47.681756 25.07356 47.376504 24.848528 47.151472 
C 24.623496 46.92644 24.318244 46.8 24 46.8 
C 23.681756 46.8 23.376504 46.92644 23.151472 47.151472 
C 22.92644 47.376504 22.8 47.681756 22.8 48 
C 22.8 48.318244 22.92644 48.623496 23.151472 48.848528 
C 23.376504 49.07356 23.681756 49.2 24 49.2 
z
M 36 49.2 
C 36.318244 49.2 36.623496 49.07356 36.848528 48.848528 
C 37.07356 48.623496 37.2 48.318244 37.2 48 
C 37.2 47.681756 37.07356 47.376504 36.848528 47.151472 
C 36.623496 46.92644 36.318244 46.8 36 46.8 
C 35.681756 46.8 35.376504 46.92644 35.151472 47.151472 
C 34.92644 47.376504 34.8 47.681756 34.8 48 
C 34.8 48.318244 34.92644 48.623496 35.151472 48.848528 
C 35.376504 49.07356 35.681756 49.2 36 49.2 
z
M 48 49.2 
C 48.318244 49.2 48.623496 49.07356 48.848528 48.848528 
C 49.07356 48.623496 49.2 48.318244 49.2 48 
C 49.2 47.681756 49.07356 47.376504 48.848528 47.151472 
C 48.623496 46.92644 48.318244 46.8 48 46.8 
C 47.681756 46.8 47.376504 46.92644 47.151472 47.151472 
C 46.92644 47.376504 46.8 47.681756 46.8 48 
C 46.8 48.318244 46.92644 48.623496 47.151472 48.848528 
C 47.376504 49.07356 47.681756 49.2 48 49.2 
z
M 60 49.2 
C 60.318244 49.2 60.623496 49.07356 60.848528 48.848528 
C 61.07356 48.623496 61.2 48.318244 61.2 48 
C 61.2 47.681756 61.07356 47.376504 60.848528 47.151472 
C 60.623496 46.92644 60.318244 46.8 60 46.8 
C 59.681756 46.8 59.376504 46.92644 59.151472 47.151472 
C 58.92644 47.376504 58.8 47.681756 58.8 48 
C 58.8 48.318244 58.92644 48.623496 59.151472 48.848528 
C 59.376504 49.07356 59.681756 49.2 60 49.2 
z
M 72 49.2 
C 72.318244 49.2 72.623496 49.07356 72.848528 48.848528 
C 73.07356 48.623496 73.2 48.318244 73.2 48 
C 73.2 47.681756 73.07356 47.376504 72.848528 47.151472 
C 72.623496 46.92644 72.318244 46.8 72 46.8 
C 71.681756 46.8 71.376504 46.92644 71.151472 47.151472 
C 70.92644 47.376504 70.8 47.681756 70.8 48 
C 70.8 48.318244 70.92644 48.623496 71.151472 48.848528 
C 71.376504 49.07356 71.681756 49.2 72 49.2 
z
M 6 37.2 
C 6.318244 37.2 6.623496 37.07356 6.848528 36.848528 
C 7.07356 36.623496 7.2 36.318244 7.2 36 
C 7.2 35.681756 7.07356 35.376504 6.848528 35.151472 
C 6.623496 34.92644 6.318244 34.8 6 34.8 
C 5.681756 34.8 5.376504 34.92644 5.151472 35.151472 
C 4.92644 35.376504 4.8 35.681756 4.8 36 
C 4.8 36.318244 4.92644 36.623496 5.151472 36.848528 
C 5.376504 37.07356 5.681756 37.2 6 37.2 
z
M 18 37.2 
C 18.318244 37.2 18.623496 37.07356 18.848528 36.848528 
C 19.07356 36.623496 19.2 36.318244 19.2 36 
C 19.2 35.681756 19.07356 35.376504 18.848528 35.151472 
C 18.623496 34.92644 18.318244 34.8 18 34.8 
C 17.681756 34.8 17.376504 34.92644 17.151472 35.151472 
C 16.92644 35.376504 16.8 35.681756 16.8 36 
C 16.8 36.318244 16.92644 36.623496 17.151472 36.848528 
C 17.376504 37.07356 17.681756 37.2 18 37.2 
z
M 30 37.2 
C 30.318244 37.2 30.623496 37.07356 30.848528 36.848528 
C 31.07356 36.623496 31.2 36.318244 31.2 36 
C 31.2 35.681756 31.07356 35.376504 30.848528 35.151472 
C 30.623496 34.92644 30.318244 34.8 30 34.8 
C 29.681756 34.8 29.376504 34.92644 29.151472 35.151472 
C 28.92644 35.376504 28.8 35.681756 28.8 36 
C 28.8 36.318244 28.92644 36.623496 29.151472 36.848528 
C 29.376504 37.07356 29.681756 37.2 30 37.2 
z
M 42 37.2 
C 42.318244 37.2 42.623496 37.07356 42.848528 36.848528 
C 43.07356 36.623496 43.2 36.318244 43.2 36 
C 43.2 35.681756 43.07356 35.376504 42.848528 35.151472 
C 42.623496 34.92644 42.318244 34.8 42 34.8 
C 41.681756 34.8 41.376504 34.92644 41.151472 35.151472 
C 40.92644 35.376504 40.8 35.681756 40.8 36 
C 40.8 36.318244 40.92644 36.623496 41.151472 36.848528 
C 41.376504 37.07356 41.681756 37.2 42 37.2 
z
M 54 37.2 
C 54.318244 37.2 54.623496 37.07356 54.848528 36.848528 
C 55.07356 36.623496 55.2 36.318244 55.2 36 
C 55.2 35.681756 55.07356 35.376504 54.848528 35.151472 
C 54.623496 34.92644 54.318244 34.8 54 34.8 
C 53.681756 34.8 53.376504 34.92644 53.151472 35.151472 
C 52.92644 35.376504 52.8 35.681756 52.8 36 
C 52.8 36.318244 52.92644 36.623496 53.151472 36.848528 
C 53.376504 37.07356 53.681756 37.2 54 37.2 
z
M 66 37.2 
C 66.318244 37.2 66.623496 37.07356 66.848528 36.848528 
C 67.07356 36.623496 67.2 36.318244 67.2 36 
C 67.2 35.681756 67.07356 35.376504 66.848528 35.151472 
C 66.623496 34.92644 66.318244 34.8 66 34.8 
C 65.681756 34.8 65.376504 34.92644 65.151472 35.151472 
C 64.92644 35.376504 64.8 35.681756 64.8 36 
C 64.8 36.318244 64.92644 36.623496 65.151472 36.848528 
C 65.376504 37.07356 65.681756 37.2 66 37.2 
z
M 0 25.2 
C 0.318244 25.2 0.623496 25.07356 0.848528 24.848528 
C 1.07356 24.623496 1.2 24.318244 1.2 24 
C 1.2 23.681756 1.07356 23.376504 0.848528 23.151472 
C 0.623496 22.92644 0.318244 22.8 0 22.8 
C -0.318244 22.8 -0.623496 22.92644 -0.848528 23.151472 
C -1.07356 23.376504 -1.2 23.681756 -1.2 24 
C -1.2 24.318244 -1.07356 24.623496 -0.848528 24.848528 
C -0.623496 25.07356 -0.318244 25.2 0 25.2 
z
M 12 25.2 
C 12.318244 25.2 12.623496 25.07356 12.848528 24.848528 
C 13.07356 24.623496 13.2 24.318244 13.2 24 
C 13.2 23.681756 13.07356 23.376504 12.848528 23.151472 
C 12.623496 22.92644 12.318244 22.8 12 22.8 
C 11.681756 22.8 11.376504 22.92644 11.151472 23.151472 
C 10.92644 23.376504 10.8 23.681756 10.8 24 
C 10.8 24.318244 10.92644 24.623496 11.151472 24.848528 
C 11.376504 25.07356 11.681756 25.2 12 25.2 
z
M 24 25.2 
C 24.318244 25.2 24.623496 25.07356 24.848528 24.848528 
C 25.07356 24.623496 25.2 24.318244 25.2 24 
C 25.2 23.681756 25.07356 23.376504 24.848528 23.151472 
C 24.623496 22.92644 24.318244 22.8 24 22.8 
C 23.681756 22.8 23.376504 22.92644 23.151472 23.151472 
C 22.92644 23.376504 22.8 23.681756 22.8 24 
C 22.8 24.318244 22.92644 24.623496 23.151472 24.848528 
C 23.376504 25.07356 23.681756 25.2 24 25.2 
z
M 36 25.2 
C 36.318244 25.2 36.623496 25.07356 36.848528 24.848528 
C 37.07356 24.623496 37.2 24.318244 37.2 24 
C 37.2 23.681756 37.07356 23.376504 36.848528 23.151472 
C 36.623496 22.92644 36.318244 22.8 36 22.8 
C 35.681756 22.8 35.376504 22.92644 35.151472 23.151472 
C 34.92644 23.376504 34.8 23.681756 34.8 24 
C 34.8 24.318244 34.92644 24.623496 35.151472 24.848528 
C 35.376504 25.07356 35.681756 25.2 36 25.2 
z
M 48 25.2 
C 48.318244 25.2 48.623496 25.07356 48.848528 24.848528 
C 49.07356 24.623496 49.2 24.318244 49.2 24 
C 49.2 23.681756 49.07356 23.376504 48.848528 23.151472 
C 48.623496 22.92644 48.318244 22.8 48 22.8 
C 47.681756 22.8 47.376504 22.92644 47.151472 23.151472 
C 46.92644 23.376504 46.8 23.681756 46.8 24 
C 46.8 24.318244 46.92644 24.623496 47.151472 24.848528 
C 47.376504 25.07356 47.681756 25.2 48 25.2 
z
M 60 25.2 
C 60.318244 25.2 60.623496 25.07356 60.848528 24.848528 
C 61.07356 24.623496 61.2 24.318244 61.2 24 
C 61.2 23.681756 61.07356 23.376504 60.848528 23.151472 
C 60.623496 22.92644 60.318244 22.8 60 22.8 
C 59.681756 22.8 59.376504 22.92644 59.151472 23.151472 
C 58.92644 23.376504 58.8 23.681756 58.8 24 
C 58.8 24.318244 58.92644 24.623496 59.151472 24.848528 
C 59.376504 25.07356 59.681756 25.2 60 25.2 
z
M 72 25.2 
C 72.318244 25.2 72.623496 25.07356 72.848528 24.848528 
C 73.07356 24.623496 73.2 24.318244 73.2 24 
C 73.2 23.681756 73.07356 23.376504 72.848528 23.151472 
C 72.623496 22.92644 72.318244 22.8 72 22.8 
C 71.681756 22.8 71.376504 22.92644 71.151472 23.151472 
C 70.92644 23.376504 70.8 23.681756 70.8 24 
C 70.8 24.318244 70.92644 24.623496 71.151472 24.848528 
C 71.376504 25.07356 71.681756 25.2 72 25.2 
z
M 6 13.2 
C 6.318244 13.2 6.623496 13.07356 6.848528 12.848528 
C 7.07356 12.623496 7.2 12.318244 7.2 12 
C 7.2 11.681756 7.07356 11.376504 6.848528 11.151472 
C 6.623496 10.92644 6.318244 10.8 6 10.8 
C 5.681756 10.8 5.376504 10.92644 5.151472 11.151472 
C 4.92644 11.376504 4.8 11.681756 4.8 12 
C 4.8 12.318244 4.92644 12.623496 5.151472 12.848528 
C 5.376504 13.07356 5.681756 13.2 6 13.2 
z
M 18 13.2 
C 18.318244 13.2 18.623496 13.07356 18.848528 12.848528 
C 19.07356 12.623496 19.2 12.318244 19.2 12 
C 19.2 11.681756 19.07356 11.376504 18.848528 11.151472 
C 18.623496 10.92644 18.318244 10.8 18 10.8 
C 17.681756 10.8 17.376504 10.92644 17.151472 11.151472 
C 16.92644 11.376504 16.8 11.681756 16.8 12 
C 16.8 12.318244 16.92644 12.623496 17.151472 12.848528 
C 17.376504 13.07356 17.681756 13.2 18 13.2 
z
M 30 13.2 
C 30.318244 13.2 30.623496 13.07356 30.848528 12.848528 
C 31.07356 12.623496 31.2 12.318244 31.2 12 
C 31.2 11.681756 31.07356 11.376504 30.848528 11.151472 
C 30.623496 10.92644 30.318244 10.8 30 10.8 
C 29.681756 10.8 29.376504 10.92644 29.151472 11.151472 
C 28.92644 11.376504 28.8 11.681756 28.8 12 
C 28.8 12.318244 28.92644 12.623496 29.151472 12.848528 
C 29.376504 13.07356 29.681756 13.2 30 13.2 
z
M 42 13.2 
C 42.318244 13.2 42.623496 13.07356 42.848528 12.848528 
C 43.07356 12.623496 43.2 12.318244 43.2 12 
C 43.2 11.681756 43.07356 11.376504 42.848528 11.151472 
C 42.623496 10.92644 42.318244 10.8 42 10.8 
C 41.681756 10.8 41.376504 10.92644 41.151472 11.151472 
C 40.92644 11.376504 40.8 11.681756 40.8 12 
C 40.8 12.318244 40.92644 12.623496 41.151472 12.848528 
C 41.376504 13.07356 41.681756 13.2 42 13.2 
z
M 54 13.2 
C 54.318244 13.2 54.623496 13.07356 54.848528 12.848528 
C 55.07356 12.623496 55.2 12.318244 55.2 12 
C 55.2 11.681756 55.07356 11.376504 54.848528 11.151472 
C 54.623496 10.92644 54.318244 10.8 54 10.8 
C 53.681756 10.8 53.376504 10.92644 53.151472 11.151472 
C 52.92644 11.376504 52.8 11.681756 52.8 12 
C 52.8 12.318244 52.92644 12.623496 53.151472 12.848528 
C 53.376504 13.07356 53.681756 13.2 54 13.2 
z
M 66 13.2 
C 66.318244 13.2 66.623496 13.07356 66.848528 12.848528 
C 67.07356 12.623496 67.2 12.318244 67.2 12 
C 67.2 11.681756 67.07356 11.376504 66.848528 11.151472 
C 66.623496 10.92644 66.318244 10.8 66 10.8 
C 65.681756 10.8 65.376504 10.92644 65.151472 11.151472 
C 64.92644 11.376504 64.8 11.681756 64.8 12 
C 64.8 12.318244 64.92644 12.623496 65.151472 12.848528 
C 65.376504 13.07356 65.681756 13.2 66 13.2 
z
M 0 1.2 
C 0.318244 1.2 0.623496 1.07356 0.848528 0.848528 
C 1.07356 0.623496 1.2 0.318244 1.2 0 
C 1.2 -0.318244 1.07356 -0.623496 0.848528 -0.848528 
C 0.623496 -1.07356 0.318244 -1.2 0 -1.2 
C -0.318244 -1.2 -0.623496 -1.07356 -0.848528 -0.848528 
C -1.07356 -0.623496 -1.2 -0.318244 -1.2 0 
C -1.2 0.318244 -1.07356 0.623496 -0.848528 0.848528 
C -0.623496 1.07356 -0.318244 1.2 0 1.2 
z
M 12 1.2 
C 12.318244 1.2 12.623496 1.07356 12.848528 0.848528 
C 13.07356 0.623496 13.2 0.318244 13.2 0 
C 13.2 -0.318244 13.07356 -0.623496 12.848528 -0.848528 
C 12.623496 -1.07356 12.318244 -1.2 12 -1.2 
C 11.681756 -1.2 11.376504 -1.07356 11.151472 -0.848528 
C 10.92644 -0.623496 10.8 -0.318244 10.8 0 
C 10.8 0.318244 10.92644 0.623496 11.151472 0.848528 
C 11.376504 1.07356 11.681756 1.2 12 1.2 
z
M 24 1.2 
C 24.318244 1.2 24.623496 1.07356 24.848528 0.848528 
C 25.07356 0.623496 25.2 0.318244 25.2 0 
C 25.2 -0.318244 25.07356 -0.623496 24.848528 -0.848528 
C 24.623496 -1.07356 24.318244 -1.2 24 -1.2 
C 23.681756 -1.2 23.376504 -1.07356 23.151472 -0.848528 
C 22.92644 -0.623496 22.8 -0.318244 22.8 0 
C 22.8 0.318244 22.92644 0.623496 23.151472 0.848528 
C 23.376504 1.07356 23.681756 1.2 24 1.2 
z
M 36 1.2 
C 36.318244 1.2 36.623496 1.07356 36.848528 0.848528 
C 37.07356 0.623496 37.2 0.318244 37.2 0 
C 37.2 -0.318244 37.07356 -0.623496 36.848528 -0.848528 
C 36.623496 -1.07356 36.318244 -1.2 36 -1.2 
C 35.681756 -1.2 35.376504 -1.07356 35.151472 -0.848528 
C 34.92644 -0.623496 34.8 -0.318244 34.8 0 
C 34.8 0.318244 34.92644 0.623496 35.151472 0.848528 
C 35.376504 1.07356 35.681756 1.2 36 1.2 
z
M 48 1.2 
C 48.318244 1.2 48.623496 1.07356 48.848528 0.848528 
C 49.07356 0.623496 49.2 0.318244 49.2 0 
C 49.2 -0.318244 49.07356 -0.623496 48.848528 -0.848528 
C 48.623496 -1.07356 48.318244 -1.2 48 -1.2 
C 47.681756 -1.2 47.376504 -1.07356 47.151472 -0.848528 
C 46.92644 -0.623496 46.8 -0.318244 46.8 0 
C 46.8 0.318244 46.92644 0.623496 47.151472 0.848528 
C 47.376504 1.07356 47.681756 1.2 48 1.2 
z
M 60 1.2 
C 60.318244 1.2 60.623496 1.07356 60.848528 0.848528 
C 61.07356 0.623496 61.2 0.318244 61.2 0 
C 61.2 -0.318244 61.07356 -0.623496 60.848528 -0.848528 
C 60.623496 -1.07356 60.318244 -1.2 60 -1.2 
C 59.681756 -1.2 59.376504 -1.07356 59.151472 -0.848528 
C 58.92644 -0.623496 58.8 -0.318244 58.8 0 
C 58.8 0.318244 58.92644 0.623496 59.151472 0.848528 
C 59.376504 1.07356 59.681756 1.2 60 1.2 
z
M 72 1.2 
C 72.318244 1.2 72.623496 1.07356 72.848528 0.848528 
C 73.07356 0.623496 73.2 0.318244 73.2 0 
C 73.2 -0.318244 73.07356 -0.623496 72.848528 -0.848528 
C 72.623496 -1.07356 72.318244 -1.2 72 -1.2 
C 71.681756 -1.2 71.376504 -1.07356 71.151472 -0.848528 
C 70.92644 -0.623496 70.8 -0.318244 70.8 0 
C 70.8 0.318244 70.92644 0.623496 71.151472 0.848528 
C 71.376504 1.07356 71.681756 1.2 72 1.2 
z
" style="fill: #008000; stroke: #008000; stroke-width: 1.0; stroke-linecap: butt; stroke-linejoin: miter"/>
  </pattern>
  <pattern id="ha549f7c59e" patternUnits="userSpaceOnUse" x="0" y="0" width="72" height="72">
   <rect x="0" y="0" width="73" height="73" fill="none"/>
   <path d="M -36 36 
L 36 108 
M -24 24 
L 48 96 
M -12 12 
L 60 84 
M 0 0 
L 72 72 
M 12 -12 
L 84 60 
M 24 -24 
L 96 48 
M 36 -36 
L 108 36 
" style="fill: #ff0000; stroke: #ff0000; stroke-width: 1.0; stroke-linecap: butt; stroke-linejoin: miter"/>
  </pattern>
 </defs>
</svg>
